<?xml version="1.0" standalone="no"?>
<!DOCTYPE svg PUBLIC "-//W3C//DTD SVG 1.1//EN" "http://www.w3.org/Graphics/SVG/1.1/DTD/svg11.dtd" >
<svg>
<metadata>
Created by FontForge 20110222 at Mon Apr  7 03:51:18 2014
 By Orthosie Webhosting
Generated by Fontographer 4.1.4
</metadata>
<defs>
<font id="DINFactLightRegular" horiz-adv-x="514" >
  <font-face 
    font-family="DINFactLightRegular"
    font-weight="400"
    font-stretch="normal"
    units-per-em="1000"
    panose-1="0 0 4 0 0 0 0 0 0 0"
    ascent="800"
    descent="-200"
    x-height="482"
    cap-height="712"
    bbox="-100 -236 1099 975"
    underline-thickness="38"
    underline-position="-122"
    unicode-range="U+0020-F002"
  />
<missing-glyph horiz-adv-x="500" 
d="M63 0v975h375v-975h-375zM125 63h250v850h-250v-850z" />
    <glyph glyph-name=".notdef" horiz-adv-x="500" 
d="M63 0v975h375v-975h-375zM125 63h250v850h-250v-850z" />
    <glyph glyph-name=".null" horiz-adv-x="0" 
 />
    <glyph glyph-name="nonmarkingreturn" horiz-adv-x="255" 
 />
    <glyph glyph-name="space" unicode=" " horiz-adv-x="255" 
 />
    <glyph glyph-name="exclam" unicode="!" horiz-adv-x="304" 
d="M191 192h-49l-3 520h55zM133 0v67h67v-67h-67z" />
    <glyph glyph-name="quotedbl" unicode="&#x22;" horiz-adv-x="408" 
d="M95 556v156h63v-156h-63zM250 556v156h63v-156h-63z" />
    <glyph glyph-name="numbersign" unicode="#" horiz-adv-x="639" 
d="M488 437l-25 -153h96v-44h-103l-38 -240h-51l39 240h-176l-37 -240h-51l38 240h-96v44h103l25 153h-99v45h105l36 230h52l-37 -230h175l36 230h50l-36 -230h94v-45h-100zM262 437l-25 -153h175l25 153h-175z" />
    <glyph glyph-name="dollar" unicode="$" horiz-adv-x="587" 
d="M528 191q0 -92 -65 -144q-58 -47 -153 -52v-109h-45v108q-125 5 -214 94l38 38q76 -76 176 -83v295l-16 2q-82 10 -130 55q-53 48 -53 128q0 88 56 140q53 48 143 54v89h45v-89q99 -5 182 -76l-35 -35q-66 59 -147 65v-290l29 -5q89 -15 127 -47q62 -52 62 -138zM474 189
q0 104 -98 130q-2 0 -66 11v-287q72 5 115 38q49 39 49 108zM265 671q-67 -5 -105 -42q-41 -38 -41 -104q0 -118 146 -137v283z" />
    <glyph glyph-name="percent" unicode="%" horiz-adv-x="828" 
d="M759 127q0 -59 -36 -96.5t-95 -37.5q-60 0 -96 37t-36 97v107q0 60 36 97t96 37q59 0 95 -37.5t36 -96.5v-107zM332 478q0 -59 -36 -96t-95 -37t-95.5 37t-36.5 96v107q0 60 36 97t96 37q59 0 95 -37.5t36 -96.5v-107zM715 232q0 98 -87 98q-88 0 -88 -98v-103
q0 -98 88 -98q87 0 87 98v103zM288 583q0 98 -87 98q-88 0 -88 -98v-103q0 -97 88 -97q87 0 87 97v103zM271 0h-45l332 712h45z" />
    <glyph glyph-name="ampersand" unicode="&#x26;" horiz-adv-x="746" 
d="M593 0l-69 84q-90 -90 -219 -90q-96 0 -157 53q-64 56 -64 150q0 76 50 132q27 30 113 89q-79 96 -79 158q0 60 42.5 101t102.5 41t102.5 -41.5t42.5 -101.5q0 -71 -82 -128q-15 -10 -53 -36l204 -247q27 40 36 85q6 31 6 92h53q0 -140 -62 -217l102 -124h-69zM278 382
q-71 -49 -95 -74q-45 -48 -45 -108q0 -72 46.5 -115t119.5 -43q101 0 190 79zM405 575q0 40 -26 67.5t-66 27.5t-65.5 -26t-25.5 -66q0 -48 70 -131l41 28q72 49 72 100z" />
    <glyph glyph-name="quotesingle" unicode="'" horiz-adv-x="253" 
d="M95 556v156h63v-156h-63z" />
    <glyph glyph-name="parenleft" unicode="(" horiz-adv-x="284" 
d="M182 -94q-33 33 -39 40q-46 53 -46 133v554q0 56 19 93q15 29 66 80l35 -35q-24 -24 -31 -32q-38 -44 -38 -112v-542q0 -48 15 -79q10 -21 54 -65z" />
    <glyph glyph-name="parenright" unicode=")" horiz-adv-x="284" 
d="M187 79q0 -57 -19 -93q-16 -30 -66 -80l-37 37q24 24 31 32q37 42 37 110v542q0 49 -14 77q-11 22 -54 65l37 37q25 -25 38 -40q47 -54 47 -133v-554z" />
    <glyph glyph-name="asterisk" unicode="*" horiz-adv-x="467" 
d="M373 438l-120 73l3 -141h-45l3 141l-120 -73l-22 38l123 68l-123 68l22 38l120 -73l-3 141h45l-3 -141l120 73l22 -38l-123 -68l123 -68z" />
    <glyph glyph-name="plus" unicode="+" 
d="M281 240v-181h-47v181h-181v47h181v180h47v-180h180v-47h-180z" />
    <glyph glyph-name="comma" unicode="," horiz-adv-x="258" 
d="M95 -136v204h68v-136z" />
    <glyph glyph-name="hyphen" unicode="-" horiz-adv-x="426" 
d="M82 240v47h262v-47h-262z" />
    <glyph glyph-name="hyphen" unicode="&#x2010;" horiz-adv-x="426" 
d="M82 240v47h262v-47h-262z" />
    <glyph glyph-name="period" unicode="." horiz-adv-x="264" 
d="M95 0v74h74v-74h-74z" />
    <glyph glyph-name="slash" unicode="/" horiz-adv-x="338" 
d="M53 -74h-53l285 860h53z" />
    <glyph glyph-name="zero" unicode="0" 
d="M444 184q0 -83 -52 -136.5t-135 -53.5t-135 53.5t-52 136.5v344q0 83 52 136.5t135 53.5t135 -53.5t52 -136.5v-344zM393 523q0 66 -34 107q-37 43 -102 43t-100.5 -42t-35.5 -108v-334q0 -65 35 -106q37 -44 101 -44t101 44q35 41 35 106v334z" />
    <glyph glyph-name="one" unicode="1" 
d="M262 0v654l-129 -114v61l129 111h51v-712h-51z" />
    <glyph glyph-name="two" unicode="2" 
d="M72 0v45l286 375q40 52 40 111q0 65 -36.5 103.5t-100.5 38.5q-65 0 -101 -38t-36 -104h-51q0 84 52 135.5t136 51.5q85 0 136.5 -51t51.5 -136q0 -73 -49 -137l-267 -349h316v-45h-377z" />
    <glyph glyph-name="three" unicode="3" 
d="M447 190q0 -91 -55 -144t-147 -53q-89 0 -143 46.5t-60 133.5h51q6 -65 46 -100t106 -35q68 0 109.5 42t41.5 110q0 152 -155 152h-12v45h12q141 0 141 143q0 64 -37 104t-101 40q-127 0 -142 -130h-51q8 81 59.5 128t133.5 47q86 0 137.5 -51.5t51.5 -137.5
q0 -119 -101 -162q115 -39 115 -178z" />
    <glyph glyph-name="four" unicode="4" 
d="M376 117v-117h-51v117h-282v45l262 550h54l-262 -550h228v226h51v-226h95v-45h-95z" />
    <glyph glyph-name="five" unicode="5" 
d="M451 233q0 -240 -192 -240q-172 0 -185 164h51q17 -119 134 -119q81 0 115 59q26 46 26 136q0 190 -133 190q-106 0 -129 -75h-45v364h342v-45h-297v-252q47 53 135 53q178 0 178 -235z" />
    <glyph glyph-name="six" unicode="6" 
d="M448 201q0 -89 -49 -146q-52 -61 -139 -61q-88 0 -138.5 56t-50.5 144q0 68 40 149l183 369h51l-164 -329q37 17 83 17q85 0 136 -58q48 -54 48 -141zM397 197q0 67 -36 112.5t-102 45.5t-103 -47q-34 -43 -34 -111t34 -111q37 -47 103 -47q67 0 104 47q34 43 34 111z
" />
    <glyph glyph-name="seven" unicode="7" 
d="M207 0h-52l252 667h-270v-112h-51v157h373v-45z" />
    <glyph glyph-name="eight" unicode="8" 
d="M460 192q0 -86 -58 -142t-145 -56t-145 56t-58 142q0 118 113 178q-98 54 -98 162q0 81 53.5 133.5t134.5 52.5t134.5 -52.5t53.5 -133.5q0 -110 -97 -162q112 -59 112 -178zM409 192q0 65 -43.5 109.5t-108.5 44.5t-108.5 -44.5t-43.5 -109.5q0 -66 43 -109.5t109 -43.5
t109 43.5t43 109.5zM394 532q0 62 -37.5 101.5t-99.5 39.5t-99.5 -39.5t-37.5 -101.5t37.5 -101.5t99.5 -39.5t99.5 39.5t37.5 101.5z" />
    <glyph glyph-name="nine" unicode="9" 
d="M443 518q0 -68 -40 -149l-183 -369h-51l164 329q-37 -17 -84 -17q-85 0 -135 58q-48 55 -48 141q0 89 49 146q52 61 139 61q89 0 139 -55t50 -145zM392 515q0 68 -34 111q-37 47 -104 47t-103 -47q-34 -43 -34 -111t34 -111q37 -47 103 -47q67 0 104 47q34 43 34 111z
" />
    <glyph glyph-name="colon" unicode=":" horiz-adv-x="292" 
d="M123 0v74h74v-74h-74zM123 312v74h74v-74h-74z" />
    <glyph glyph-name="semicolon" unicode=";" horiz-adv-x="292" 
d="M125 -136v204h68v-136zM123 312v74h74v-74h-74z" />
    <glyph glyph-name="less" unicode="&#x3c;" 
d="M409 78l-304 161v48l304 161v-55l-254 -130l254 -130v-55z" />
    <glyph glyph-name="equal" unicode="=" 
d="M53 163v47h408v-47h-408zM53 316v47h408v-47h-408z" />
    <glyph glyph-name="greater" unicode="&#x3e;" 
d="M409 239l-304 -161v55l254 130l-254 130v55l304 -161v-48z" />
    <glyph glyph-name="question" unicode="?" horiz-adv-x="488" 
d="M438 542q0 -54 -44 -119l-85 -125q-18 -26 -18 -60v-47h-51v45q0 47 29 90l84 124q34 50 34 92q0 56 -36 93.5t-92 37.5t-92 -37.5t-36 -93.5h-51q0 77 51 126.5t128 49.5q76 0 127.5 -50t51.5 -126zM232 0v67h67v-67h-67z" />
    <glyph glyph-name="at" unicode="@" horiz-adv-x="951" 
d="M738 199q-55 -44 -125 -44q-44 0 -91 46q-63 -46 -102 -46q-126 0 -126 134q0 87 49 150q53 69 138 69q35 0 92 -43q26 27 28 28h44q2 0 2 -1q0 -9 -8 -37q-11 -38 -22 -75q-15 -58 -24 -116l-10 -66q89 12 122 40q73 63 73 173q0 111 -85 172q-76 55 -191 55
q-131 0 -221 -79q-109 -96 -109 -246q0 -127 89 -201q84 -70 213 -70q142 0 227 44l23 -34q-96 -57 -244 -57q-152 0 -247 73q-120 92 -120 248q0 130 80 228q116 142 317 142q136 0 222 -67q104 -81 104 -203q0 -139 -98 -217zM486 462q-62 0 -99 -59q-31 -51 -31 -117
q0 -85 73 -85q92 0 122 137q3 14 12 53q-19 71 -77 71z" />
    <glyph glyph-name="A" unicode="A" horiz-adv-x="602" 
d="M529 0l-62 173h-332l-62 -173h-58l262 712h48l262 -712h-58zM301 640l-149 -419h298z" />
    <glyph glyph-name="B" unicode="B" horiz-adv-x="671" 
d="M589 194q0 -94 -57 -144t-152 -50h-270v712h262q90 0 146 -48q60 -50 60 -138q0 -57 -29 -100t-82 -60q122 -43 122 -172zM535 194q0 70 -44.5 108t-116.5 38h-210v-292h210q72 0 116.5 38t44.5 108zM524 526q0 69 -46 105q-41 33 -112 33h-202v-276h202q71 0 112 33
q46 36 46 105z" />
    <glyph glyph-name="C" unicode="C" horiz-adv-x="644" 
d="M568 202q-18 -95 -82 -151.5t-160 -56.5q-105 0 -178 73q-45 45 -57 109q-9 47 -9 180t9 180q12 64 57 109q73 73 178 73q97 0 160.5 -56t81.5 -152h-55q-16 73 -65 116.5t-122 43.5q-80 0 -135 -55q-36 -36 -47 -92q-8 -42 -8 -167t8 -167q11 -56 47 -92q55 -55 135 -55
q73 0 123 43.5t66 116.5h53z" />
    <glyph glyph-name="D" unicode="D" horiz-adv-x="678" 
d="M596 366q0 -113 -7 -159q-14 -94 -62 -142q-65 -65 -178 -65h-239v712h239q206 0 240 -197q7 -41 7 -149zM542 366q0 94 -5 129q-24 169 -201 169h-172v-616h172q100 0 153 55q37 39 48 124q5 40 5 139z" />
    <glyph glyph-name="E" unicode="E" horiz-adv-x="598" 
d="M110 0v712h432v-48h-378v-281h322v-48h-322v-287h378v-48h-432z" />
    <glyph glyph-name="F" unicode="F" horiz-adv-x="576" 
d="M164 664v-293h322v-48h-322v-323h-54v712h432v-48h-378z" />
    <glyph glyph-name="G" unicode="G" horiz-adv-x="651" 
d="M571 248q0 -109 -58 -172q-76 -82 -187 -82q-105 0 -178 73q-45 45 -57 109q-9 47 -9 180t9 180q12 64 57 109q73 73 178 73q94 0 160.5 -57.5t82.5 -150.5h-54q-16 73 -66 116.5t-123 43.5q-80 0 -135 -55q-36 -36 -47 -92q-8 -42 -8 -167t8 -167q11 -56 47 -92
q55 -55 135 -55q90 0 142 61q49 58 49 149v64h-191v48h245v-116z" />
    <glyph glyph-name="H" unicode="H" horiz-adv-x="699" 
d="M535 0v335h-371v-335h-54v712h54v-329h371v329h54v-712h-54z" />
    <glyph glyph-name="I" unicode="I" horiz-adv-x="274" 
d="M110 0v712h54v-712h-54z" />
    <glyph glyph-name="J" unicode="J" horiz-adv-x="498" 
d="M398 210q0 -98 -57.5 -157t-154.5 -59q-95 0 -156 61l37 37q50 -50 119 -50q158 0 158 179v491h54v-502z" />
    <glyph glyph-name="K" unicode="K" horiz-adv-x="645" 
d="M563 0l-229 399l-170 -206v-193h-54v712h54v-445l361 445h65l-220 -272l257 -440h-64z" />
    <glyph glyph-name="L" unicode="L" horiz-adv-x="572" 
d="M110 0v712h54v-664h378v-48h-432z" />
    <glyph glyph-name="M" unicode="M" horiz-adv-x="818" 
d="M654 0v587l-216 -487h-54l-220 487v-587h-54v712h54l248 -549l242 549h54v-712h-54z" />
    <glyph glyph-name="N" unicode="N" horiz-adv-x="739" 
d="M575 0l-411 619v-619h-54v712h54l411 -617v617h54v-712h-54z" />
    <glyph glyph-name="O" unicode="O" horiz-adv-x="652" 
d="M570 356q0 -133 -9 -180q-12 -64 -57 -109q-73 -73 -178 -73t-178 73q-45 45 -57 109q-9 47 -9 180t9 180q12 64 57 109q73 73 178 73t178 -73q45 -45 57 -109q9 -47 9 -180zM516 356q0 125 -8 167q-11 56 -47 92q-55 55 -135 55t-135 -55q-36 -36 -47 -92
q-8 -42 -8 -167t8 -167q11 -56 47 -92q55 -55 135 -55t135 55q36 36 47 92q8 42 8 167z" />
    <glyph glyph-name="P" unicode="P" horiz-adv-x="631" 
d="M586 507q0 -95 -59.5 -150t-155.5 -55h-207v-302h-54v712h261q97 0 156 -54.5t59 -150.5zM532 507q0 157 -167 157h-201v-314h201q78 0 122.5 40t44.5 117z" />
    <glyph glyph-name="Q" unicode="Q" horiz-adv-x="651" 
d="M567 -36l-84 84q-68 -54 -157 -54q-105 0 -178 73q-45 45 -57 109q-9 47 -9 180t9 180q12 64 57 109q73 73 178 73t178 -73q45 -45 57 -109q9 -47 9 -180q0 -122 -7 -169q-10 -64 -44 -103l84 -84zM516 356q0 125 -8 167q-11 56 -47 92q-55 55 -135 55t-135 -55
q-36 -36 -47 -92q-8 -42 -8 -167t8 -167q11 -56 47 -92q55 -55 135 -55q69 0 121 42l-100 100l36 36l99 -99q22 31 29 86q5 40 5 149z" />
    <glyph glyph-name="R" unicode="R" horiz-adv-x="657" 
d="M530 0l-170 328h-196v-328h-54v712h271q91 0 147 -49q57 -52 57 -142q0 -78 -43.5 -128.5t-120.5 -63.5l172 -329h-63zM531 520q0 72 -42 108t-115 36h-210v-288h210q73 0 115 36t42 108z" />
    <glyph glyph-name="S" unicode="S" horiz-adv-x="587" 
d="M528 191q0 -98 -73 -151q-65 -46 -167 -46q-143 0 -237 94l38 38q46 -46 91.5 -65t110.5 -19q78 0 127 34q56 38 56 113q0 67 -39 100q-32 27 -103 38l-83 13q-183 29 -183 183q0 95 64 147q59 48 157 48q116 0 205 -77l-35 -35q-69 66 -173 66q-74 0 -118 -36
q-47 -38 -47 -111q0 -115 143 -137l77 -12q87 -14 127 -47q62 -52 62 -138z" />
    <glyph glyph-name="T" unicode="T" horiz-adv-x="539" 
d="M296 664v-664h-54v664h-212v48h479v-48h-213z" />
    <glyph glyph-name="U" unicode="U" horiz-adv-x="688" 
d="M588 231q0 -106 -69 -171.5t-175 -65.5t-175 65.5t-69 171.5v481h54v-474q0 -88 51 -142t139 -54t139 54t51 142v474h54v-481z" />
    <glyph glyph-name="V" unicode="V" horiz-adv-x="534" 
d="M290 0h-46l-234 712h57l200 -617l200 617h57z" />
    <glyph glyph-name="W" unicode="W" horiz-adv-x="842" 
d="M644 0h-55l-168 620l-168 -620h-55l-178 712h57l150 -619l166 619h56l166 -619l150 619h57z" />
    <glyph glyph-name="X" unicode="X" horiz-adv-x="532" 
d="M451 0l-186 317l-186 -317h-61l218 365l-204 347h63l170 -299l171 299h62l-204 -347l220 -365h-63z" />
    <glyph glyph-name="Y" unicode="Y" horiz-adv-x="494" 
d="M274 295v-295h-54v295l-210 417h58l181 -360l177 360h58z" />
    <glyph glyph-name="Z" unicode="Z" horiz-adv-x="559" 
d="M63 0v57l375 607h-360v48h418v-48l-378 -616h378v-48h-433z" />
    <glyph glyph-name="bracketleft" unicode="[" horiz-adv-x="290" 
d="M97 -74v860h148v-45h-97v-770h97v-45h-148z" />
    <glyph glyph-name="backslash" unicode="\" horiz-adv-x="338" 
d="M285 -74l-285 860h53l285 -860h-53z" />
    <glyph glyph-name="bracketright" unicode="]" horiz-adv-x="290" 
d="M45 -74v42h100v776h-100v42h148v-860h-148z" />
    <glyph glyph-name="asciicircum" unicode="^" 
d="M387 422l-130 242l-130 -242h-51l158 296h46l158 -296h-51z" />
    <glyph glyph-name="underscore" unicode="_" 
d="M0 -160v38h514v-38h-514z" />
    <glyph glyph-name="grave" unicode="`" horiz-adv-x="500" 
d="M239 590l-106 147h67l97 -147h-58z" />
    <glyph glyph-name="a" unicode="a" horiz-adv-x="524" 
d="M380 0v48q-54 -54 -147 -54q-177 0 -177 138q0 71 50 107q44 32 118 32h156v54q0 118 -136 118q-89 0 -133 -61l-37 32q54 74 170 74q187 0 187 -158v-330h-51zM380 230h-150q-123 0 -123 -97q0 -94 126 -94q81 0 120 37q27 25 27 92v62z" />
    <glyph glyph-name="b" unicode="b" horiz-adv-x="540" 
d="M471 241q0 -247 -180 -247q-91 0 -143 68v-62h-51v712h51v-292q52 68 143 68q180 0 180 -247zM420 241q0 90 -23 137q-32 65 -113 65t-113 -65q-23 -47 -23 -137q0 -202 136 -202t136 202z" />
    <glyph glyph-name="c" unicode="c" horiz-adv-x="493" 
d="M440 68q-36 -40 -71 -57t-88 -17q-105 0 -161 73q-51 66 -51 174t51 174q56 73 161 73q53 0 88 -17t71 -57l-35 -32q-54 61 -124 61q-85 0 -126 -61q-35 -52 -35 -141t35 -141q41 -61 126 -61q68 0 124 61z" />
    <glyph glyph-name="d" unicode="d" horiz-adv-x="540" 
d="M392 0v62q-52 -68 -143 -68q-180 0 -180 247t180 247q91 0 143 -68v292h51v-712h-51zM392 241q0 90 -23 137q-32 65 -113 65t-113 -65q-23 -47 -23 -137q0 -202 136 -202t136 202z" />
    <glyph glyph-name="e" unicode="e" horiz-adv-x="523" 
d="M120 230q0 -190 157 -190q75 0 133 58l38 -30q-74 -74 -174 -74q-205 0 -205 247q0 106 43 171q50 76 150 76q98 0 149 -71q44 -62 44 -164v-23h-335zM404 271q-4 60 -17 91q-34 81 -125 81q-93 0 -125 -81q-13 -33 -17 -91h284z" />
    <glyph glyph-name="f" unicode="f" horiz-adv-x="304" 
d="M163 444v-444h-51v444h-66v38h66v104q0 57 30 91.5t86 34.5h44v-45h-35q-74 0 -74 -80v-105h109v-38h-109z" />
    <glyph glyph-name="g" unicode="g" horiz-adv-x="540" 
d="M443 -27q0 -93 -51 -150q-54 -59 -146 -59q-52 0 -85.5 14t-73.5 50l34 34q34 -31 56 -41q27 -12 69 -12q74 0 112 48q34 43 34 119v86q-52 -68 -143 -68q-180 0 -180 247t180 247q91 0 143 -68v62h51v-509zM392 241q0 90 -23 137q-32 65 -113 65t-113 -65
q-23 -47 -23 -137q0 -202 136 -202t136 202z" />
    <glyph glyph-name="h" unicode="h" horiz-adv-x="559" 
d="M417 0v299q0 144 -133 144q-67 0 -101.5 -38.5t-34.5 -105.5v-299h-51v712h51v-287q54 63 142 63q84 0 131 -48t47 -132v-308h-51z" />
    <glyph glyph-name="i" unicode="i" horiz-adv-x="245" 
d="M97 0v482h51v-482h-51zM91 649v63h63v-63h-63z" />
    <glyph glyph-name="j" unicode="j" horiz-adv-x="245" 
d="M148 -105q0 -125 -116 -125h-44v45h35q41 0 57.5 19.5t16.5 61.5v586h51v-587zM91 649v63h63v-63h-63z" />
    <glyph glyph-name="k" unicode="k" horiz-adv-x="527" 
d="M424 0l-166 265l-110 -127v-138h-51v712h51v-502l239 272h65l-159 -180l194 -302h-63z" />
    <glyph glyph-name="l" unicode="l" horiz-adv-x="287" 
d="M211 0q-116 0 -116 125v587h51v-586q0 -42 16.5 -61.5t57.5 -19.5h35v-45h-44z" />
    <glyph glyph-name="m" unicode="m" horiz-adv-x="878" 
d="M737 0v299q0 144 -133 144q-63 0 -99.5 -36t-36.5 -99v-308h-51v299q0 144 -133 144q-67 0 -101.5 -38.5t-34.5 -105.5v-299h-51v482h51v-57q54 63 143 63q110 0 155 -88q56 88 164 88q83 0 130 -48.5t47 -131.5v-308h-50z" />
    <glyph glyph-name="n" unicode="n" horiz-adv-x="559" 
d="M417 0v299q0 144 -133 144q-67 0 -101.5 -38.5t-34.5 -105.5v-299h-51v482h51v-57q54 63 142 63q83 0 130.5 -48.5t47.5 -131.5v-308h-51z" />
    <glyph glyph-name="o" unicode="o" horiz-adv-x="526" 
d="M457 241q0 -108 -42 -172q-50 -75 -152 -75t-152 75q-42 64 -42 172t42 172q50 75 152 75t152 -75q42 -64 42 -172zM406 241q0 202 -143 202t-143 -202t143 -202t143 202z" />
    <glyph glyph-name="p" unicode="p" horiz-adv-x="540" 
d="M471 241q0 -247 -180 -247q-91 0 -143 68v-292h-51v712h51v-62q52 68 143 68q180 0 180 -247zM420 241q0 90 -23 137q-32 65 -113 65t-113 -65q-23 -47 -23 -137q0 -202 136 -202t136 202z" />
    <glyph glyph-name="q" unicode="q" horiz-adv-x="540" 
d="M392 -230v292q-52 -68 -143 -68q-180 0 -180 247t180 247q91 0 143 -68v62h51v-712h-51zM392 241q0 90 -23 137q-32 65 -113 65t-113 -65q-23 -47 -23 -137q0 -202 136 -202t136 202z" />
    <glyph glyph-name="r" unicode="r" horiz-adv-x="409" 
d="M368 405q-38 38 -91 38q-60 0 -96 -44q-33 -40 -33 -102v-297h-51v482h51v-64q44 70 141 70q70 0 116 -46z" />
    <glyph glyph-name="s" unicode="s" horiz-adv-x="494" 
d="M438 137q0 -74 -62 -112q-52 -31 -131 -31q-123 0 -195 69l35 35q56 -59 158 -59q145 0 145 98q0 73 -92 81l-80 7q-145 13 -145 126q0 69 54 105q47 32 119 32q100 0 169 -51l-34 -34q-56 41 -135 41q-123 0 -123 -93q0 -72 98 -81l78 -7q69 -6 101 -31q40 -29 40 -95z
" />
    <glyph glyph-name="t" unicode="t" horiz-adv-x="325" 
d="M225 0q-55 0 -85.5 35t-30.5 91v318h-66v38h66v154h51v-154h109v-38h-109v-319q0 -80 74 -80h35v-45h-44z" />
    <glyph glyph-name="u" unicode="u" horiz-adv-x="559" 
d="M411 0v57q-54 -63 -142 -63q-83 0 -130.5 48.5t-47.5 131.5v308h51v-299q0 -144 133 -144q67 0 101.5 38.5t34.5 105.5v299h51v-482h-51z" />
    <glyph glyph-name="v" unicode="v" horiz-adv-x="430" 
d="M240 0h-50l-176 482h56l145 -422l145 422h56z" />
    <glyph glyph-name="w" unicode="w" horiz-adv-x="712" 
d="M544 0h-52l-136 402l-136 -402h-52l-154 482h56l123 -422l138 422h50l138 -422l123 422h56z" />
    <glyph glyph-name="x" unicode="x" horiz-adv-x="460" 
d="M358 0l-127 203l-129 -203h-62l163 246l-156 236h62l122 -194l120 194h62l-156 -236l163 -246h-62z" />
    <glyph glyph-name="y" unicode="y" horiz-adv-x="430" 
d="M192 -131q-14 -39 -33 -56q-34 -31 -91 -31h-24v45h19q39 0 56.5 14t31.5 52l39 107l-176 482h56l145 -422l145 422h56z" />
    <glyph glyph-name="z" unicode="z" horiz-adv-x="452" 
d="M54 0v48l290 389h-274v45h328v-48l-291 -389h291v-45h-344z" />
    <glyph glyph-name="braceleft" unicode="{" horiz-adv-x="316" 
d="M252 -74q-69 0 -96 26.5t-27 95.5v207q0 79 -61 79h-18v44h18q61 0 61 79v207q0 69 27 95.5t96 26.5h14v-45h-13q-47 0 -60 -14.5t-13 -63.5v-207q0 -70 -61 -100q61 -30 61 -100v-207q0 -49 13 -63.5t60 -14.5h13v-45h-14z" />
    <glyph glyph-name="bar" unicode="|" horiz-adv-x="317" 
d="M133 -74v860h51v-860h-51z" />
    <glyph glyph-name="braceright" unicode="}" horiz-adv-x="316" 
d="M248 334q-61 0 -61 -79v-207q0 -69 -27 -95.5t-96 -26.5h-14v45h13q47 0 60 14.5t13 63.5v207q0 70 61 100q-61 30 -61 100v207q0 49 -13 63.5t-60 14.5h-13v45h14q69 0 96 -26.5t27 -95.5v-207q0 -79 61 -79h18v-44h-18z" />
    <glyph glyph-name="asciitilde" unicode="~" 
d="M461 277q-34 -34 -52 -45q-28 -17 -64 -17q-29 0 -102 31q-55 23 -76 23q-38 0 -83 -45l-31 31q34 34 52 45q28 17 64 17q29 0 102 -31q55 -23 76 -23q26 0 46 13q12 7 37 32z" />
    <glyph glyph-name="nonbreakingspace" unicode="&#xa0;" horiz-adv-x="255" 
 />
    <glyph glyph-name="exclamdown" unicode="&#xa1;" horiz-adv-x="304" 
d="M110 -230l3 520h49l3 -520h-55zM104 415v67h67v-67h-67z" />
    <glyph glyph-name="cent" unicode="&#xa2;" horiz-adv-x="498" 
d="M440 193q-34 -38 -66.5 -55t-81.5 -19v-119h-43v121q-91 12 -139 84q-41 64 -41 161t41 161q48 72 139 84v101h43v-99q49 -2 81.5 -19t66.5 -55l-35 -32q-52 57 -113 61v-404q61 4 113 61zM249 565q-129 -21 -129 -199t129 -199v398z" />
    <glyph glyph-name="sterling" unicode="&#xa3;" horiz-adv-x="537" 
d="M114 0v342h-64v38h64v122q0 98 57.5 157t154.5 59q95 0 156 -61l-37 -37q-50 50 -119 50q-158 0 -158 -179v-111h158v-38h-158v-294h314v-48h-368z" />
    <glyph glyph-name="currency" unicode="&#xa4;" horiz-adv-x="676" 
d="M600 202q-18 -95 -82 -151.5t-160 -56.5q-107 0 -178 73q-39 40 -53 93q-10 38 -12 108h-65v38h64v106h-64v38h65q2 70 15 112q15 48 50 83q73 73 178 73q97 0 160.5 -56t81.5 -152h-55q-16 73 -65 116.5t-122 43.5q-80 0 -135 -55q-32 -32 -44 -77q-8 -30 -10 -88h244
v-38h-245v-106h245v-38h-244q2 -60 10 -92q12 -47 44 -79q55 -55 135 -55q73 0 123 43.5t66 116.5h53z" />
    <glyph glyph-name="yen" unicode="&#xa5;" horiz-adv-x="493" 
d="M320 386h108v-38h-127l-27 -53v-53h154v-38h-154v-204h-54v204h-155v38h155v53l-27 53h-128v38h109l-164 326h57l181 -361l179 361h56z" />
    <glyph glyph-name="brokenbar" unicode="&#xa6;" horiz-adv-x="328" 
d="M133 -74v350h51v-350h-51zM133 436v350h51v-350h-51z" />
    <glyph glyph-name="section" unicode="&#xa7;" horiz-adv-x="566" 
d="M469 247q0 -56 -29.5 -101.5t-80.5 -68.5q103 -34 103 -146q0 -76 -51 -121.5t-128 -45.5q-76 0 -125 39q-53 42 -59 116h54q10 -107 130 -107q58 0 91.5 31t33.5 88q0 41 -27 72q-25 28 -67 40l-83 23q-63 18 -98.5 66.5t-35.5 114.5q0 56 29.5 101.5t80.5 68.5
q-99 42 -99 141q0 73 52 118q48 42 123 42q73 0 123.5 -40t54.5 -111h-53q-10 104 -125 104q-122 0 -122 -113q0 -82 91 -107l83 -23q62 -17 98 -66.5t36 -114.5zM415 247q0 61 -35.5 101.5t-96.5 40.5q-70 0 -109 -56q-23 -33 -23 -86q0 -62 35.5 -102t96.5 -40t96.5 40
t35.5 102z" />
    <glyph glyph-name="dieresis" unicode="&#xa8;" horiz-adv-x="500" 
d="M117 600v77h58v-77h-58zM325 600v77h58v-77h-58z" />
    <glyph glyph-name="copyright" unicode="&#xa9;" horiz-adv-x="894" 
d="M809 356q0 -151 -105.5 -256.5t-256.5 -105.5t-256.5 105.5t-105.5 256.5t105.5 256.5t256.5 105.5t256.5 -105.5t105.5 -256.5zM761 356q0 130 -92 224t-222 94t-222 -94t-92 -224t92 -224t222 -94t222 94t92 224zM582 202q-58 -52 -131 -52q-87 0 -134 61
q-43 55 -43 145t42 146q47 61 135 61q72 0 131 -53l-30 -30q-48 42 -101 42q-132 0 -132 -166q0 -165 132 -165q55 0 101 41z" />
    <glyph glyph-name="ordfeminine" unicode="&#xaa;" horiz-adv-x="447" 
d="M313 327v36q-42 -41 -114 -41q-140 0 -140 110q0 111 133 111h121v42q0 91 -105 91q-72 0 -104 -48l-32 27q45 60 136 60q148 0 148 -126v-262h-43zM313 508h-116q-95 0 -95 -75q0 -72 97 -72q65 0 94 28q20 19 20 72v47z" />
    <glyph glyph-name="guillemotleft" unicode="&#xab;" horiz-adv-x="527" 
d="M42 265l196 196v-66l-130 -130l130 -130v-66zM249 265l196 196v-66l-130 -130l130 -130v-66z" />
    <glyph glyph-name="logicalnot" unicode="&#xac;" 
d="M414 107v133h-361v47h408v-180h-47z" />
    <glyph glyph-name="minus" unicode="&#xad;" 
d="M53 240v47h408v-47h-408z" />
    <glyph glyph-name="minus" unicode="&#x2212;" 
d="M53 240v47h408v-47h-408z" />
    <glyph glyph-name="registered" unicode="&#xae;" horiz-adv-x="894" 
d="M809 356q0 -151 -105.5 -256.5t-256.5 -105.5t-256.5 105.5t-105.5 256.5t105.5 256.5t256.5 105.5t256.5 -105.5t105.5 -256.5zM762 356q0 131 -92.5 225t-222.5 94t-222.5 -94t-92.5 -225t92.5 -225t222.5 -94t222.5 94t92.5 225zM543 156l-99 167h-66v-167h-45v401
h128q51 0 87.5 -33.5t36.5 -84.5q0 -86 -91 -112l101 -171h-52zM540 439q0 34 -24.5 55.5t-59.5 21.5h-78v-153h78q35 0 59.5 21t24.5 55z" />
    <glyph glyph-name="macron" unicode="&#xaf;" horiz-adv-x="500" 
d="M102 608v46h296v-46h-296z" />
    <glyph glyph-name="macron" unicode="&#x2c9;" horiz-adv-x="500" 
d="M102 608v46h296v-46h-296z" />
    <glyph glyph-name="degree" unicode="&#xb0;" horiz-adv-x="458" 
d="M386 562q0 -65 -46 -111t-111 -46t-111 46t-46 111t46 111t111 46t111 -46t46 -111zM341 562q0 48 -32.5 81.5t-80.5 33.5q-49 0 -80 -33t-31 -82t31.5 -82t80.5 -33t80.5 33t31.5 82z" />
    <glyph glyph-name="plusminus" unicode="&#xb1;" 
d="M281 270v-182h-47v182h-181v47h181v181h47v-181h180v-47h-180zM53 0v47h408v-47h-408z" />
    <glyph glyph-name="twosuperior" unicode="&#xb2;" horiz-adv-x="336" 
d="M50 285v40l168 213q23 29 23 62q0 76 -73 76q-74 0 -74 -76h-44q0 53 32.5 84.5t85.5 31.5q54 0 86 -31t32 -85q0 -44 -34 -87l-149 -188h183v-40h-236z" />
    <glyph glyph-name="threesuperior" unicode="&#xb3;" horiz-adv-x="352" 
d="M302 402q0 -56 -34.5 -89t-90.5 -33q-55 0 -90 29.5t-37 84.5h45q4 -74 82 -74q37 0 59 22.5t22 59.5q0 81 -84 81h-8v39h8q76 0 76 77q0 35 -20 56t-54 21q-69 0 -76 -70h-44q4 51 36.5 80.5t83.5 29.5q53 0 85.5 -31.5t32.5 -84.5q0 -69 -57 -95q65 -24 65 -103z" />
    <glyph glyph-name="acute" unicode="&#xb4;" horiz-adv-x="500" 
d="M261 590h-58l97 147h67z" />
    <glyph glyph-name="mu" unicode="&#xb5;" horiz-adv-x="556" 
d="M408 0v57q-54 -63 -142 -63q-79 0 -127 45v-269h-51v712h51v-299q0 -144 133 -144q67 0 101.5 38.5t34.5 105.5v299h51v-482h-51z" />
    <glyph glyph-name="mu" unicode="&#x3bc;" horiz-adv-x="556" 
d="M408 0v57q-54 -63 -142 -63q-79 0 -127 45v-269h-51v712h51v-299q0 -144 133 -144q67 0 101.5 38.5t34.5 105.5v299h51v-482h-51z" />
    <glyph glyph-name="paragraph" unicode="&#xb6;" horiz-adv-x="579" 
d="M418 -230v894h-123v-894h-51v562q-83 0 -141 53.5t-58 136.5q0 87 63 140q59 50 148 50h213v-942h-51z" />
    <glyph glyph-name="periodcentered" unicode="&#xb7;" horiz-adv-x="264" 
d="M95 227v74h74v-74h-74z" />
    <glyph glyph-name="periodcentered" unicode="&#x2219;" horiz-adv-x="264" 
d="M95 227v74h74v-74h-74z" />
    <glyph glyph-name="cedilla" unicode="&#xb8;" horiz-adv-x="500" 
d="M244 -220h-63l72 150h55z" />
    <glyph glyph-name="onesuperior" unicode="&#xb9;" horiz-adv-x="249" 
d="M125 285v378l-80 -71v51l80 69h44v-427h-44z" />
    <glyph glyph-name="ordmasculine" unicode="&#xba;" horiz-adv-x="452" 
d="M380 519q0 -85 -34 -136q-39 -60 -120 -60t-120 60q-34 51 -34 136t34 136q39 60 120 60t120 -60q34 -51 34 -136zM337 519q0 157 -111 157t-111 -157t111 -157t111 157z" />
    <glyph glyph-name="guillemotright" unicode="&#xbb;" horiz-adv-x="527" 
d="M82 69v66l130 130l-130 130v66l196 -196zM289 69v66l130 130l-130 130v66l196 -196z" />
    <glyph glyph-name="onequarter" unicode="&#xbc;" horiz-adv-x="756" 
d="M664 67v-67h-44v67h-170v40l154 320h47l-153 -320h122v120h44v-120h52v-40h-52zM213 0h-45l332 712h45zM125 285v378l-80 -71v51l80 69h44v-427h-44z" />
    <glyph glyph-name="onehalf" unicode="&#xbd;" horiz-adv-x="764" 
d="M478 0v40l168 213q23 29 23 62q0 76 -73 76q-74 0 -74 -76h-44q0 53 32.5 84.5t85.5 31.5q54 0 86 -31t32 -85q0 -44 -34 -87l-149 -188h183v-40h-236zM198 0h-45l332 712h45zM125 285v378l-80 -71v51l80 69h44v-427h-44z" />
    <glyph glyph-name="threequarters" unicode="&#xbe;" horiz-adv-x="806" 
d="M302 402q0 -56 -34.5 -89t-90.5 -33q-55 0 -90 29.5t-37 84.5h45q4 -74 82 -74q37 0 59 22.5t22 59.5q0 81 -84 81h-8v39h8q76 0 76 77q0 35 -20 56t-54 21q-69 0 -76 -70h-44q4 51 36.5 80.5t83.5 29.5q53 0 85.5 -31.5t32.5 -84.5q0 -69 -57 -95q65 -24 65 -103z
M714 67v-67h-44v67h-170v40l154 320h47l-153 -320h122v120h44v-120h52v-40h-52zM273 0h-45l332 712h45z" />
    <glyph glyph-name="questiondown" unicode="&#xbf;" horiz-adv-x="488" 
d="M408 -60q0 -77 -51 -126.5t-128 -49.5q-76 0 -127.5 50t-51.5 126q0 54 44 119l85 125q18 26 18 60v47h51v-45q0 -47 -29 -90l-84 -124q-34 -50 -34 -92q0 -56 36 -93.5t92 -37.5t92 37.5t36 93.5h51zM189 415v67h67v-67h-67z" />
    <glyph glyph-name="Agrave" unicode="&#xc0;" horiz-adv-x="602" 
d="M529 0l-62 173h-332l-62 -173h-58l262 712h48l262 -712h-58zM301 640l-149 -419h298zM290 780l-106 147h67l97 -147h-58z" />
    <glyph glyph-name="Aacute" unicode="&#xc1;" horiz-adv-x="602" 
d="M529 0l-62 173h-332l-62 -173h-58l262 712h48l262 -712h-58zM301 640l-149 -419h298zM312 780h-58l97 147h67z" />
    <glyph glyph-name="Acircumflex" unicode="&#xc2;" horiz-adv-x="602" 
d="M529 0l-62 173h-332l-62 -173h-58l262 712h48l262 -712h-58zM301 640l-149 -419h298zM394 780l-93 109l-93 -109h-57l123 147h54l123 -147h-57z" />
    <glyph glyph-name="Atilde" unicode="&#xc3;" horiz-adv-x="602" 
d="M529 0l-62 173h-332l-62 -173h-58l262 712h48l262 -712h-58zM301 640l-149 -419h298zM450 843q-48 -48 -89 -48q-24 0 -66 22.5t-59 22.5q-26 0 -59 -33l-30 29q48 48 89 48q26 0 66 -22.5t59 -22.5q26 0 59 33z" />
    <glyph glyph-name="Adieresis" unicode="&#xc4;" horiz-adv-x="602" 
d="M529 0l-62 173h-332l-62 -173h-58l262 712h48l262 -712h-58zM301 640l-149 -419h298zM168 790v77h58v-77h-58zM376 790v77h58v-77h-58z" />
    <glyph glyph-name="Aring" unicode="&#xc5;" horiz-adv-x="602" 
d="M529 0l-62 173h-332l-62 -173h-58l262 712h48l262 -712h-58zM301 640l-149 -419h298zM415 861q0 -47 -33.5 -81t-80.5 -34t-80.5 34t-33.5 81t33.5 80.5t80.5 33.5t80.5 -33.5t33.5 -80.5zM374 861q0 30 -21.5 51t-51.5 21t-51.5 -21t-21.5 -51t21.5 -51.5t51.5 -21.5
t51.5 21.5t21.5 51.5z" />
    <glyph glyph-name="AE" unicode="&#xc6;" horiz-adv-x="901" 
d="M414 0v173h-255l-90 -173h-59l377 712h458v-48h-378v-284h322v-48h-322v-284h378v-48h-431zM414 664l-232 -443h232v443z" />
    <glyph glyph-name="Ccedilla" unicode="&#xc7;" horiz-adv-x="644" 
d="M568 202q-18 -95 -82 -151.5t-160 -56.5q-105 0 -178 73q-45 45 -57 109q-9 47 -9 180t9 180q12 64 57 109q73 73 178 73q97 0 160.5 -56t81.5 -152h-55q-16 73 -65 116.5t-122 43.5q-80 0 -135 -55q-36 -36 -47 -92q-8 -42 -8 -167t8 -167q11 -56 47 -92q55 -55 135 -55
q73 0 123 43.5t66 116.5h53zM302 -220h-63l72 150h55z" />
    <glyph glyph-name="Egrave" unicode="&#xc8;" horiz-adv-x="598" 
d="M110 0v712h432v-48h-378v-281h322v-48h-322v-287h378v-48h-432zM303 780l-106 147h67l97 -147h-58z" />
    <glyph glyph-name="Eacute" unicode="&#xc9;" horiz-adv-x="598" 
d="M110 0v712h432v-48h-378v-281h322v-48h-322v-287h378v-48h-432zM325 780h-58l97 147h67z" />
    <glyph glyph-name="Ecircumflex" unicode="&#xca;" horiz-adv-x="598" 
d="M110 0v712h432v-48h-378v-281h322v-48h-322v-287h378v-48h-432zM407 780l-93 109l-93 -109h-57l123 147h54l123 -147h-57z" />
    <glyph glyph-name="Edieresis" unicode="&#xcb;" horiz-adv-x="598" 
d="M110 0v712h432v-48h-378v-281h322v-48h-322v-287h378v-48h-432zM389 790v77h58v-77h-58zM181 790v77h58v-77h-58z" />
    <glyph glyph-name="Igrave" unicode="&#xcc;" horiz-adv-x="274" 
d="M110 0v712h54v-712h-54zM133 780l-106 147h67l97 -147h-58z" />
    <glyph glyph-name="Iacute" unicode="&#xcd;" horiz-adv-x="274" 
d="M110 0v712h54v-712h-54zM168 780h-58l97 147h67z" />
    <glyph glyph-name="Icircumflex" unicode="&#xce;" horiz-adv-x="274" 
d="M110 0v712h54v-712h-54zM232 780l-93 109l-93 -109h-57l123 147h54l123 -147h-57z" />
    <glyph glyph-name="Idieresis" unicode="&#xcf;" horiz-adv-x="274" 
d="M110 0v712h54v-712h-54zM212 790v77h58v-77h-58zM4 790v77h58v-77h-58z" />
    <glyph glyph-name="Eth" unicode="&#xd0;" horiz-adv-x="689" 
d="M607 356q0 -125 -8 -169q-7 -37 -30 -74q-72 -113 -215 -113h-233v338h-81v42h81v332h240q142 0 208 -115q28 -49 35 -117q3 -29 3 -124zM553 351q0 114 -5 149q-7 48 -35 86q-59 79 -166 79h-172v-285h178v-42h-178v-291h172q118 0 172 81q23 35 29 77q5 38 5 146z" />
    <glyph glyph-name="Ntilde" unicode="&#xd1;" horiz-adv-x="739" 
d="M575 0l-411 619v-619h-54v712h54l411 -617v617h54v-712h-54zM519 843q-48 -48 -89 -48q-24 0 -66 22.5t-59 22.5q-26 0 -59 -33l-30 29q48 48 89 48q26 0 66 -22.5t59 -22.5q26 0 59 33z" />
    <glyph glyph-name="Ograve" unicode="&#xd2;" horiz-adv-x="652" 
d="M570 356q0 -133 -9 -180q-12 -64 -57 -109q-73 -73 -178 -73t-178 73q-45 45 -57 109q-9 47 -9 180t9 180q12 64 57 109q73 73 178 73t178 -73q45 -45 57 -109q9 -47 9 -180zM516 356q0 125 -8 167q-11 56 -47 92q-55 55 -135 55t-135 -55q-36 -36 -47 -92
q-8 -42 -8 -167t8 -167q11 -56 47 -92q55 -55 135 -55t135 55q36 36 47 92q8 42 8 167zM315 780l-106 147h67l97 -147h-58z" />
    <glyph glyph-name="Oacute" unicode="&#xd3;" horiz-adv-x="652" 
d="M570 356q0 -133 -9 -180q-12 -64 -57 -109q-73 -73 -178 -73t-178 73q-45 45 -57 109q-9 47 -9 180t9 180q12 64 57 109q73 73 178 73t178 -73q45 -45 57 -109q9 -47 9 -180zM516 356q0 125 -8 167q-11 56 -47 92q-55 55 -135 55t-135 -55q-36 -36 -47 -92
q-8 -42 -8 -167t8 -167q11 -56 47 -92q55 -55 135 -55t135 55q36 36 47 92q8 42 8 167zM337 780h-58l97 147h67z" />
    <glyph glyph-name="Ocircumflex" unicode="&#xd4;" horiz-adv-x="652" 
d="M570 356q0 -133 -9 -180q-12 -64 -57 -109q-73 -73 -178 -73t-178 73q-45 45 -57 109q-9 47 -9 180t9 180q12 64 57 109q73 73 178 73t178 -73q45 -45 57 -109q9 -47 9 -180zM516 356q0 125 -8 167q-11 56 -47 92q-55 55 -135 55t-135 -55q-36 -36 -47 -92
q-8 -42 -8 -167t8 -167q11 -56 47 -92q55 -55 135 -55t135 55q36 36 47 92q8 42 8 167zM419 780l-93 109l-93 -109h-57l123 147h54l123 -147h-57z" />
    <glyph glyph-name="Otilde" unicode="&#xd5;" horiz-adv-x="652" 
d="M570 356q0 -133 -9 -180q-12 -64 -57 -109q-73 -73 -178 -73t-178 73q-45 45 -57 109q-9 47 -9 180t9 180q12 64 57 109q73 73 178 73t178 -73q45 -45 57 -109q9 -47 9 -180zM516 356q0 125 -8 167q-11 56 -47 92q-55 55 -135 55t-135 -55q-36 -36 -47 -92
q-8 -42 -8 -167t8 -167q11 -56 47 -92q55 -55 135 -55t135 55q36 36 47 92q8 42 8 167zM475 843q-48 -48 -89 -48q-24 0 -66 22.5t-59 22.5q-26 0 -59 -33l-30 29q48 48 89 48q26 0 66 -22.5t59 -22.5q26 0 59 33z" />
    <glyph glyph-name="Odieresis" unicode="&#xd6;" horiz-adv-x="652" 
d="M570 356q0 -133 -9 -180q-12 -64 -57 -109q-73 -73 -178 -73t-178 73q-45 45 -57 109q-9 47 -9 180t9 180q12 64 57 109q73 73 178 73t178 -73q45 -45 57 -109q9 -47 9 -180zM516 356q0 125 -8 167q-11 56 -47 92q-55 55 -135 55t-135 -55q-36 -36 -47 -92
q-8 -42 -8 -167t8 -167q11 -56 47 -92q55 -55 135 -55t135 55q36 36 47 92q8 42 8 167zM193 790v77h58v-77h-58zM401 790v77h58v-77h-58z" />
    <glyph glyph-name="Oslash" unicode="&#xd8;" horiz-adv-x="652" 
d="M570 356q0 -133 -9 -180q-12 -64 -57 -109q-73 -73 -178 -73q-71 0 -130 35l-35 -73h-53l49 102l-9 9q-45 45 -57 109q-9 47 -9 180t9 180q12 64 57 109q73 73 178 73q71 0 130 -35l35 73h53l-49 -102l9 -9q45 -45 57 -109q9 -47 9 -180zM434 637q-44 33 -108 33
q-80 0 -135 -55q-36 -36 -47 -92q-8 -42 -8 -167q0 -120 6 -159q8 -54 39 -89zM516 356q0 120 -6 159q-8 54 -39 89l-253 -529q47 -33 108 -33q80 0 135 55q36 36 47 92q8 42 8 167z" />
    <glyph glyph-name="Ugrave" unicode="&#xd9;" horiz-adv-x="688" 
d="M588 231q0 -106 -69 -171.5t-175 -65.5t-175 65.5t-69 171.5v481h54v-474q0 -88 51 -142t139 -54t139 54t51 142v474h54v-481zM333 780l-106 147h67l97 -147h-58z" />
    <glyph glyph-name="Uacute" unicode="&#xda;" horiz-adv-x="688" 
d="M588 231q0 -106 -69 -171.5t-175 -65.5t-175 65.5t-69 171.5v481h54v-474q0 -88 51 -142t139 -54t139 54t51 142v474h54v-481zM355 780h-58l97 147h67z" />
    <glyph glyph-name="Ucircumflex" unicode="&#xdb;" horiz-adv-x="688" 
d="M588 231q0 -106 -69 -171.5t-175 -65.5t-175 65.5t-69 171.5v481h54v-474q0 -88 51 -142t139 -54t139 54t51 142v474h54v-481zM437 780l-93 109l-93 -109h-57l123 147h54l123 -147h-57z" />
    <glyph glyph-name="Udieresis" unicode="&#xdc;" horiz-adv-x="688" 
d="M588 231q0 -106 -69 -171.5t-175 -65.5t-175 65.5t-69 171.5v481h54v-474q0 -88 51 -142t139 -54t139 54t51 142v474h54v-481zM419 790v77h58v-77h-58zM211 790v77h58v-77h-58z" />
    <glyph glyph-name="Yacute" unicode="&#xdd;" horiz-adv-x="494" 
d="M274 295v-295h-54v295l-210 417h58l181 -360l177 360h58zM258 780h-58l97 147h67z" />
    <glyph glyph-name="Thorn" unicode="&#xde;" horiz-adv-x="646" 
d="M586 359q0 -95 -59.5 -150t-155.5 -55h-207v-154h-54v712h54v-148h207q97 0 156 -54.5t59 -150.5zM532 359q0 157 -167 157h-201v-314h201q78 0 122.5 40t44.5 117z" />
    <glyph glyph-name="germandbls" unicode="&#xdf;" horiz-adv-x="550" 
d="M473 134q0 -61 -36.5 -97.5t-97.5 -36.5h-54v45h44q93 0 93 95v179q0 91 -88 91h-49v45h39q45 0 71.5 28t26.5 74q0 59 -41 90q-36 27 -98 27q-135 0 -135 -149v-525h-51v525q0 91 50.5 142.5t141.5 51.5q81 0 130 -40q53 -43 53 -122q0 -80 -63 -122q39 -20 53 -51
q11 -24 11 -73v-177z" />
    <glyph glyph-name="agrave" unicode="&#xe0;" horiz-adv-x="524" 
d="M380 0v48q-54 -54 -147 -54q-177 0 -177 138q0 71 50 107q44 32 118 32h156v54q0 118 -136 118q-89 0 -133 -61l-37 32q54 74 170 74q187 0 187 -158v-330h-51zM380 230h-150q-123 0 -123 -97q0 -94 126 -94q81 0 120 37q27 25 27 92v62zM238 590l-106 147h67l97 -147
h-58z" />
    <glyph glyph-name="aacute" unicode="&#xe1;" horiz-adv-x="524" 
d="M380 0v48q-54 -54 -147 -54q-177 0 -177 138q0 71 50 107q44 32 118 32h156v54q0 118 -136 118q-89 0 -133 -61l-37 32q54 74 170 74q187 0 187 -158v-330h-51zM380 230h-150q-123 0 -123 -97q0 -94 126 -94q81 0 120 37q27 25 27 92v62zM260 590h-58l97 147h67z" />
    <glyph glyph-name="acircumflex" unicode="&#xe2;" horiz-adv-x="524" 
d="M380 0v48q-54 -54 -147 -54q-177 0 -177 138q0 71 50 107q44 32 118 32h156v54q0 118 -136 118q-89 0 -133 -61l-37 32q54 74 170 74q187 0 187 -158v-330h-51zM380 230h-150q-123 0 -123 -97q0 -94 126 -94q81 0 120 37q27 25 27 92v62zM342 590l-93 109l-93 -109h-57
l123 147h54l123 -147h-57z" />
    <glyph glyph-name="atilde" unicode="&#xe3;" horiz-adv-x="524" 
d="M380 0v48q-54 -54 -147 -54q-177 0 -177 138q0 71 50 107q44 32 118 32h156v54q0 118 -136 118q-89 0 -133 -61l-37 32q54 74 170 74q187 0 187 -158v-330h-51zM380 230h-150q-123 0 -123 -97q0 -94 126 -94q81 0 120 37q27 25 27 92v62zM398 653q-48 -48 -89 -48
q-24 0 -66 22.5t-59 22.5q-26 0 -59 -33l-30 29q48 48 89 48q26 0 66 -22.5t59 -22.5q26 0 59 33z" />
    <glyph glyph-name="adieresis" unicode="&#xe4;" horiz-adv-x="524" 
d="M380 0v48q-54 -54 -147 -54q-177 0 -177 138q0 71 50 107q44 32 118 32h156v54q0 118 -136 118q-89 0 -133 -61l-37 32q54 74 170 74q187 0 187 -158v-330h-51zM380 230h-150q-123 0 -123 -97q0 -94 126 -94q81 0 120 37q27 25 27 92v62zM116 600v77h58v-77h-58zM324 600
v77h58v-77h-58z" />
    <glyph glyph-name="aring" unicode="&#xe5;" horiz-adv-x="524" 
d="M380 0v48q-54 -54 -147 -54q-177 0 -177 138q0 71 50 107q44 32 118 32h156v54q0 118 -136 118q-89 0 -133 -61l-37 32q54 74 170 74q187 0 187 -158v-330h-51zM380 230h-150q-123 0 -123 -97q0 -94 126 -94q81 0 120 37q27 25 27 92v62zM363 677q0 -47 -33.5 -81
t-80.5 -34t-80.5 34t-33.5 81t33.5 80.5t80.5 33.5t80.5 -33.5t33.5 -80.5zM322 677q0 30 -21.5 51t-51.5 21t-51.5 -21t-21.5 -51t21.5 -51.5t51.5 -21.5t51.5 21.5t21.5 51.5z" />
    <glyph glyph-name="ae" unicode="&#xe6;" horiz-adv-x="834" 
d="M431 230q0 -190 157 -190q75 0 133 58l38 -30q-74 -74 -175 -74q-122 0 -172 90q-31 -51 -76 -72q-39 -18 -103 -18q-177 0 -177 138q0 71 50 107q44 32 118 32h156v54q0 118 -136 118q-89 0 -133 -61l-37 32q54 74 170 74q136 0 173 -85q50 85 156 85q98 0 149 -71
q44 -62 44 -164v-23h-335zM380 230h-150q-123 0 -123 -97q0 -94 126 -94q81 0 120 37q27 25 27 92v62zM715 271q-4 60 -17 91q-34 81 -125 81q-93 0 -125 -81q-13 -33 -17 -91h284z" />
    <glyph glyph-name="ccedilla" unicode="&#xe7;" horiz-adv-x="493" 
d="M440 68q-36 -40 -71 -57t-88 -17q-105 0 -161 73q-51 66 -51 174t51 174q56 73 161 73q53 0 88 -17t71 -57l-35 -32q-54 61 -124 61q-85 0 -126 -61q-35 -52 -35 -141t35 -141q41 -61 126 -61q68 0 124 61zM244 -220h-63l72 150h55z" />
    <glyph glyph-name="egrave" unicode="&#xe8;" horiz-adv-x="523" 
d="M120 230q0 -190 157 -190q75 0 133 58l38 -30q-74 -74 -174 -74q-205 0 -205 247q0 106 43 171q50 76 150 76q98 0 149 -71q44 -62 44 -164v-23h-335zM404 271q-4 60 -17 91q-34 81 -125 81q-93 0 -125 -81q-13 -33 -17 -91h284zM253 590l-106 147h67l97 -147h-58z" />
    <glyph glyph-name="eacute" unicode="&#xe9;" horiz-adv-x="523" 
d="M120 230q0 -190 157 -190q75 0 133 58l38 -30q-74 -74 -174 -74q-205 0 -205 247q0 106 43 171q50 76 150 76q98 0 149 -71q44 -62 44 -164v-23h-335zM404 271q-4 60 -17 91q-34 81 -125 81q-93 0 -125 -81q-13 -33 -17 -91h284zM275 590h-58l97 147h67z" />
    <glyph glyph-name="ecircumflex" unicode="&#xea;" horiz-adv-x="523" 
d="M120 230q0 -190 157 -190q75 0 133 58l38 -30q-74 -74 -174 -74q-205 0 -205 247q0 106 43 171q50 76 150 76q98 0 149 -71q44 -62 44 -164v-23h-335zM404 271q-4 60 -17 91q-34 81 -125 81q-93 0 -125 -81q-13 -33 -17 -91h284zM357 590l-93 109l-93 -109h-57l123 147
h54l123 -147h-57z" />
    <glyph glyph-name="edieresis" unicode="&#xeb;" horiz-adv-x="523" 
d="M120 230q0 -190 157 -190q75 0 133 58l38 -30q-74 -74 -174 -74q-205 0 -205 247q0 106 43 171q50 76 150 76q98 0 149 -71q44 -62 44 -164v-23h-335zM404 271q-4 60 -17 91q-34 81 -125 81q-93 0 -125 -81q-13 -33 -17 -91h284zM131 600v77h58v-77h-58zM339 600v77h58
v-77h-58z" />
    <glyph glyph-name="igrave" unicode="&#xec;" horiz-adv-x="245" 
d="M97 0v482h51v-482h-51zM124 590l-106 147h67l97 -147h-58z" />
    <glyph glyph-name="iacute" unicode="&#xed;" horiz-adv-x="245" 
d="M97 0v482h51v-482h-51zM155 590h-58l97 147h67z" />
    <glyph glyph-name="icircumflex" unicode="&#xee;" horiz-adv-x="245" 
d="M97 0v482h51v-482h-51zM215 590l-93 109l-93 -109h-57l123 147h54l123 -147h-57z" />
    <glyph glyph-name="idieresis" unicode="&#xef;" horiz-adv-x="245" 
d="M97 0v482h51v-482h-51zM198 600v77h58v-77h-58zM-10 600v77h58v-77h-58z" />
    <glyph glyph-name="eth" unicode="&#xf0;" horiz-adv-x="526" 
d="M457 241q0 -108 -42 -172q-50 -75 -152 -75t-152 75q-42 64 -42 172t42 172q50 75 152 75q47 0 75 -17l-67 113h-117v38h95l-53 90h53l52 -90h79v-38h-57l72 -123q36 -62 49 -105q13 -46 13 -115zM406 241q0 202 -143 202t-143 -202t143 -202t143 202z" />
    <glyph glyph-name="ntilde" unicode="&#xf1;" horiz-adv-x="559" 
d="M417 0v299q0 144 -133 144q-67 0 -101.5 -38.5t-34.5 -105.5v-299h-51v482h51v-57q54 63 142 63q83 0 130.5 -48.5t47.5 -131.5v-308h-51zM433 653q-48 -48 -89 -48q-24 0 -66 22.5t-59 22.5q-26 0 -59 -33l-30 29q48 48 89 48q26 0 66 -22.5t59 -22.5q26 0 59 33z" />
    <glyph glyph-name="ograve" unicode="&#xf2;" horiz-adv-x="500" 
d="M442 241q0 -108 -42 -172q-50 -75 -152 -75t-152 75q-42 64 -42 172t42 172q50 75 152 75t152 -75q42 -64 42 -172zM391 241q0 202 -143 202t-143 -202t143 -202t143 202zM239 590l-106 147h67l97 -147h-58z" />
    <glyph glyph-name="oacute" unicode="&#xf3;" horiz-adv-x="526" 
d="M457 241q0 -108 -42 -172q-50 -75 -152 -75t-152 75q-42 64 -42 172t42 172q50 75 152 75t152 -75q42 -64 42 -172zM406 241q0 202 -143 202t-143 -202t143 -202t143 202zM274 590h-58l97 147h67z" />
    <glyph glyph-name="ocircumflex" unicode="&#xf4;" horiz-adv-x="526" 
d="M457 241q0 -108 -42 -172q-50 -75 -152 -75t-152 75q-42 64 -42 172t42 172q50 75 152 75t152 -75q42 -64 42 -172zM406 241q0 202 -143 202t-143 -202t143 -202t143 202zM356 590l-93 109l-93 -109h-57l123 147h54l123 -147h-57z" />
    <glyph glyph-name="otilde" unicode="&#xf5;" horiz-adv-x="526" 
d="M457 241q0 -108 -42 -172q-50 -75 -152 -75t-152 75q-42 64 -42 172t42 172q50 75 152 75t152 -75q42 -64 42 -172zM406 241q0 202 -143 202t-143 -202t143 -202t143 202zM412 653q-48 -48 -89 -48q-24 0 -66 22.5t-59 22.5q-26 0 -59 -33l-30 29q48 48 89 48
q26 0 66 -22.5t59 -22.5q26 0 59 33z" />
    <glyph glyph-name="odieresis" unicode="&#xf6;" horiz-adv-x="526" 
d="M457 241q0 -108 -42 -172q-50 -75 -152 -75t-152 75q-42 64 -42 172t42 172q50 75 152 75t152 -75q42 -64 42 -172zM406 241q0 202 -143 202t-143 -202t143 -202t143 202zM130 600v77h58v-77h-58zM338 600v77h58v-77h-58z" />
    <glyph glyph-name="divide" unicode="&#xf7;" 
d="M53 240v47h408v-47h-408zM222 397v70h70v-70h-70zM222 60v70h70v-70h-70z" />
    <glyph glyph-name="oslash" unicode="&#xf8;" horiz-adv-x="526" 
d="M457 241q0 -108 -42 -172q-50 -75 -152 -75q-58 0 -105 29l-40 -67h-48l56 94q-57 61 -57 191q0 108 42 172q50 75 152 75q60 0 105 -30l40 68h48l-56 -94q57 -61 57 -191zM344 418q-35 25 -81 25q-143 0 -143 -202q0 -106 32 -148zM406 241q0 106 -32 148l-192 -325
q35 -25 81 -25q143 0 143 202z" />
    <glyph glyph-name="ugrave" unicode="&#xf9;" horiz-adv-x="559" 
d="M411 0v57q-54 -63 -142 -63q-83 0 -130.5 48.5t-47.5 131.5v308h51v-299q0 -144 133 -144q67 0 101.5 38.5t34.5 105.5v299h51v-482h-51zM265 590l-106 147h67l97 -147h-58z" />
    <glyph glyph-name="uacute" unicode="&#xfa;" horiz-adv-x="559" 
d="M411 0v57q-54 -63 -142 -63q-83 0 -130.5 48.5t-47.5 131.5v308h51v-299q0 -144 133 -144q67 0 101.5 38.5t34.5 105.5v299h51v-482h-51zM287 590h-58l97 147h67z" />
    <glyph glyph-name="ucircumflex" unicode="&#xfb;" horiz-adv-x="559" 
d="M411 0v57q-54 -63 -142 -63q-83 0 -130.5 48.5t-47.5 131.5v308h51v-299q0 -144 133 -144q67 0 101.5 38.5t34.5 105.5v299h51v-482h-51zM369 590l-93 109l-93 -109h-57l123 147h54l123 -147h-57z" />
    <glyph glyph-name="udieresis" unicode="&#xfc;" horiz-adv-x="559" 
d="M411 0v57q-54 -63 -142 -63q-83 0 -130.5 48.5t-47.5 131.5v308h51v-299q0 -144 133 -144q67 0 101.5 38.5t34.5 105.5v299h51v-482h-51zM351 600v77h58v-77h-58zM143 600v77h58v-77h-58z" />
    <glyph glyph-name="thorn" unicode="&#xfe;" horiz-adv-x="540" 
d="M471 241q0 -247 -180 -247q-91 0 -143 68v-292h-51v942h51v-292q52 68 143 68q180 0 180 -247zM420 241q0 90 -23 137q-32 65 -113 65t-113 -65q-23 -47 -23 -137q0 -202 136 -202t136 202z" />
    <glyph glyph-name="ydieresis" unicode="&#xff;" horiz-adv-x="430" 
d="M192 -131q-14 -39 -33 -56q-34 -31 -91 -31h-24v45h19q39 0 56.5 14t31.5 52l39 107l-176 482h56l145 -422l145 422h56zM290 600v77h58v-77h-58zM82 600v77h58v-77h-58z" />
    <glyph glyph-name="dotlessi" unicode="&#x131;" horiz-adv-x="245" 
d="M97 0v482h51v-482h-51z" />
    <glyph glyph-name="Lslash" unicode="&#x141;" horiz-adv-x="578" 
d="M116 0v306l-76 -48v48l76 48v358h54v-324l164 104v-48l-164 -104v-292h378v-48h-432z" />
    <glyph glyph-name="lslash" unicode="&#x142;" horiz-adv-x="308" 
d="M222 0q-116 0 -116 125v231l-66 -41v45l66 41v311h51v-279l88 55v-45l-88 -55v-262q0 -42 16.5 -61.5t57.5 -19.5h35v-45h-44z" />
    <glyph glyph-name="OE" unicode="&#x152;" horiz-adv-x="997" 
d="M516 0v85q-73 -91 -190 -91q-105 0 -178 73q-45 45 -57 109q-9 47 -9 180t9 180q12 64 57 109q73 73 178 73q117 0 190 -91v85h422v-47h-369v-60q1 -53 1 -82v-143h313v-42h-313v-145q0 -30 -1 -85v-61h372v-47h-425zM516 356q0 125 -8 167q-11 56 -47 92q-55 55 -135 55
t-135 -55q-36 -36 -47 -92q-8 -42 -8 -167t8 -167q11 -56 47 -92q55 -55 135 -55t135 55q36 36 47 92q8 42 8 167z" />
    <glyph glyph-name="oe" unicode="&#x153;" horiz-adv-x="860" 
d="M457 230q0 -190 157 -190q75 0 133 58l38 -30q-74 -74 -174 -74q-128 0 -178 105q-48 -105 -170 -105q-102 0 -152 75q-42 64 -42 172t42 172q50 75 152 75q122 0 170 -105q48 105 166 105q98 0 149 -71q44 -62 44 -164v-23h-335zM406 241q0 202 -143 202t-143 -202
t143 -202t143 202zM741 271q-4 60 -17 91q-34 81 -125 81q-93 0 -125 -81q-13 -33 -17 -91h284z" />
    <glyph glyph-name="Scaron" unicode="&#x160;" horiz-adv-x="587" 
d="M528 191q0 -98 -73 -151q-65 -46 -167 -46q-143 0 -237 94l38 38q46 -46 91.5 -65t110.5 -19q78 0 127 34q56 38 56 113q0 67 -39 100q-32 27 -103 38l-83 13q-183 29 -183 183q0 95 64 147q59 48 157 48q116 0 205 -77l-35 -35q-69 66 -173 66q-74 0 -118 -36
q-47 -38 -47 -111q0 -115 143 -137l77 -12q87 -14 127 -47q62 -52 62 -138zM314 780h-54l-123 147h57l93 -109l93 109h57z" />
    <glyph glyph-name="scaron" unicode="&#x161;" horiz-adv-x="494" 
d="M438 137q0 -74 -62 -112q-52 -31 -131 -31q-123 0 -195 69l35 35q56 -59 158 -59q145 0 145 98q0 73 -92 81l-80 7q-145 13 -145 126q0 69 54 105q47 32 119 32q100 0 169 -51l-34 -34q-56 41 -135 41q-123 0 -123 -93q0 -72 98 -81l78 -7q69 -6 101 -31q40 -29 40 -95z
M271 590h-54l-123 147h57l93 -109l93 109h57z" />
    <glyph glyph-name="Ydieresis" unicode="&#x178;" horiz-adv-x="494" 
d="M274 295v-295h-54v295l-210 417h58l181 -360l177 360h58zM322 790v77h58v-77h-58zM114 790v77h58v-77h-58z" />
    <glyph glyph-name="Zcaron" unicode="&#x17d;" horiz-adv-x="559" 
d="M63 0v57l375 607h-360v48h418v-48l-378 -616h378v-48h-433zM314 780h-54l-123 147h57l93 -109l93 109h57z" />
    <glyph glyph-name="zcaron" unicode="&#x17e;" horiz-adv-x="452" 
d="M54 0v48l290 389h-274v45h328v-48l-291 -389h291v-45h-344zM261 590h-54l-123 147h57l93 -109l93 109h57z" />
    <glyph glyph-name="florin" unicode="&#x192;" horiz-adv-x="394" 
d="M321 667q-74 0 -88 -80l-36 -207h109v-38h-116l-101 -572h-51l101 572h-109v38h116l36 206q10 56 46 91t92 35h44v-45h-43z" />
    <glyph glyph-name="circumflex" unicode="&#x2c6;" horiz-adv-x="500" 
d="M343 590l-93 109l-93 -109h-57l123 147h54l123 -147h-57z" />
    <glyph glyph-name="caron" unicode="&#x2c7;" horiz-adv-x="500" 
d="M277 590h-54l-123 147h57l93 -109l93 109h57z" />
    <glyph glyph-name="breve" unicode="&#x2d8;" horiz-adv-x="500" 
d="M415 722q-14 -135 -163 -135q-153 0 -167 135h47q13 -90 120 -90t120 90h43z" />
    <glyph glyph-name="dotaccent" unicode="&#x2d9;" horiz-adv-x="500" 
d="M219 643v63h62v-63h-62z" />
    <glyph glyph-name="ring" unicode="&#x2da;" horiz-adv-x="500" 
d="M364 677q0 -47 -33.5 -81t-80.5 -34t-80.5 34t-33.5 81t33.5 80.5t80.5 33.5t80.5 -33.5t33.5 -80.5zM323 677q0 30 -21.5 51t-51.5 21t-51.5 -21t-21.5 -51t21.5 -51.5t51.5 -21.5t51.5 21.5t21.5 51.5z" />
    <glyph glyph-name="ogonek" unicode="&#x2db;" horiz-adv-x="500" 
d="M256 -220l-64 150h55l72 -150h-63z" />
    <glyph glyph-name="tilde" unicode="&#x2dc;" horiz-adv-x="500" 
d="M399 653q-48 -48 -89 -48q-24 0 -66 22.5t-59 22.5q-26 0 -59 -33l-30 29q48 48 89 48q26 0 66 -22.5t59 -22.5q26 0 59 33z" />
    <glyph glyph-name="hungarumlaut" unicode="&#x2dd;" horiz-adv-x="500" 
d="M188 590h-58l97 147h67zM334 590h-57l97 147h67z" />
    <glyph glyph-name="endash" unicode="&#x2013;" 
d="M53 240v47h408v-47h-408z" />
    <glyph glyph-name="emdash" unicode="&#x2014;" horiz-adv-x="873" 
d="M82 240v47h709v-47h-709z" />
    <glyph glyph-name="quoteleft" unicode="&#x2018;" horiz-adv-x="260" 
d="M95 642v70l70 70v-140h-70z" />
    <glyph glyph-name="quoteright" unicode="&#x2019;" horiz-adv-x="260" 
d="M95 572v140h70v-70z" />
    <glyph glyph-name="quotesinglbase" unicode="&#x201a;" horiz-adv-x="260" 
d="M95 -70v140h70v-70z" />
    <glyph glyph-name="quotedblleft" unicode="&#x201c;" horiz-adv-x="416" 
d="M95 642v70l70 70v-140h-70zM251 642v70l70 70v-140h-70z" />
    <glyph glyph-name="quotedblright" unicode="&#x201d;" horiz-adv-x="416" 
d="M95 572v140h70v-70zM251 572v140h70v-70z" />
    <glyph glyph-name="quotedblbase" unicode="&#x201e;" horiz-adv-x="416" 
d="M95 -70v140h70v-70zM251 -70v140h70v-70z" />
    <glyph glyph-name="dagger" unicode="&#x2020;" horiz-adv-x="614" 
d="M331 457v-457h-51v457h-200v45h200v210h51v-210h203v-45h-203z" />
    <glyph glyph-name="daggerdbl" unicode="&#x2021;" horiz-adv-x="614" 
d="M331 -20v-210h-51v210h-200v45h200v432h-200v45h200v210h51v-210h203v-45h-203v-432h203v-45h-203z" />
    <glyph glyph-name="bullet" unicode="&#x2022;" horiz-adv-x="546" 
d="M436 334q0 -68 -47.5 -115.5t-115.5 -47.5q-67 0 -115 48t-48 115q0 68 47.5 115.5t115.5 47.5t115.5 -47.5t47.5 -115.5z" />
    <glyph glyph-name="ellipsis" unicode="&#x2026;" horiz-adv-x="724" 
d="M325 0v74h74v-74h-74zM555 0v74h74v-74h-74zM95 0v74h74v-74h-74z" />
    <glyph glyph-name="perthousand" unicode="&#x2030;" horiz-adv-x="1168" 
d="M759 127q0 -59 -36 -96.5t-95 -37.5q-60 0 -96 37t-36 97v107q0 60 36 97t96 37q59 0 95 -37.5t36 -96.5v-107zM1099 127q0 -59 -36 -96.5t-95 -37.5q-60 0 -96 37t-36 97v107q0 60 36 97t96 37q59 0 95 -37.5t36 -96.5v-107zM332 478q0 -59 -36 -96t-95 -37t-95.5 37
t-36.5 96v107q0 60 36 97t96 37q59 0 95 -37.5t36 -96.5v-107zM1055 232q0 98 -87 98q-88 0 -88 -98v-103q0 -98 88 -98q87 0 87 97v104zM715 232q0 98 -87 98q-88 0 -88 -98v-103q0 -98 88 -98q87 0 87 98v103zM288 583q0 98 -87 98q-88 0 -88 -98v-103q0 -97 88 -97
q87 0 87 97v103zM271 0h-45l332 712h45z" />
    <glyph glyph-name="guilsinglleft" unicode="&#x2039;" horiz-adv-x="320" 
d="M42 265l196 196v-66l-130 -130l130 -130v-66z" />
    <glyph glyph-name="guilsinglright" unicode="&#x203a;" horiz-adv-x="320" 
d="M82 69v66l130 130l-130 130v66l196 -196z" />
    <glyph glyph-name="fraction" unicode="&#x2044;" horiz-adv-x="177" 
d="M-55 0h-45l332 712h45z" />
    <glyph glyph-name="trademark" unicode="&#x2122;" horiz-adv-x="809" 
d="M709 285v328l-110 -218h-46l-110 218v-328h-44v427h44l133 -270l133 270h44v-427h-44zM198 671v-386h-44v386h-122v41h288v-41h-122z" />
    <glyph glyph-name="fi" unicode="&#xf001;" horiz-adv-x="547" 
d="M163 444v-444h-51v444h-66v38h66v104q0 57 30 91.5t86 34.5h44v-45h-35q-74 0 -74 -80v-105h109v-38h-109zM399 0v482h51v-482h-51zM393 649v63h63v-63h-63z" />
    <glyph glyph-name="fl" unicode="&#xf002;" horiz-adv-x="586" 
d="M163 444v-444h-51v444h-66v38h66v104q0 57 30 91.5t86 34.5h44v-45h-35q-74 0 -74 -80v-105h109v-38h-109zM510 0q-116 0 -116 125v587h51v-586q0 -42 16.5 -61.5t57.5 -19.5h35v-45h-44z" />
    <glyph glyph-name="glyph230" horiz-adv-x="676" 
d="M600 202q-18 -95 -82 -151.5t-160 -56.5q-107 0 -178 73q-39 40 -53 93q-10 38 -12 108h-65v38h64v106h-64v38h65q2 70 15 112q15 48 50 83q73 73 178 73q97 0 160.5 -56t81.5 -152h-55q-16 73 -65 116.5t-122 43.5q-80 0 -135 -55q-32 -32 -44 -77q-8 -30 -10 -88h244
v-38h-245v-106h245v-38h-244q2 -60 10 -92q12 -47 44 -79q55 -55 135 -55q73 0 123 43.5t66 116.5h53z" />
    <glyph glyph-name="glyph231" horiz-adv-x="657" 
d="M540 22l-75 74q-57 -48 -137 -48t-137 48l-74 -74l-32 32l74 74q-48 57 -48 137q0 81 48 138l-74 73l32 32l74 -73q56 47 137 47t137 -47l75 73l32 -32l-74 -73q47 -56 47 -138q0 -81 -47 -137l74 -74zM497 265q0 71 -49 120t-120 49t-120 -49t-49 -120
q0 -70 49.5 -119.5t119.5 -49.5q71 0 120 49t49 120z" />
  </font>
</defs>
</svg>
